<svg class="icon" width="33" height="32" viewBox="0 0 33 32" fill="none" xmlns="http://www.w3.org/2000/svg">
<rect x="1.5" y="1" width="30" height="30" rx="15" stroke="#2D3648" stroke-width="2"/>
<path d="M17.1666 11.3334C17.1666 10.9652 16.8681 10.6667 16.5 10.6667C16.1318 10.6667 15.8333 10.9652 15.8333 11.3334V15.3334H11.8333C11.4651 15.3334 11.1666 15.6318 11.1666 16C11.1666 16.3682 11.4651 16.6667 11.8333 16.6667H15.8333V20.6667C15.8333 21.0349 16.1318 21.3334 16.5 21.3334C16.8681 21.3334 17.1666 21.0349 17.1666 20.6667V16.6667H21.1666C21.5348 16.6667 21.8333 16.3682 21.8333 16C21.8333 15.6318 21.5348 15.3334 21.1666 15.3334H17.1666V11.3334Z" fill="#2D3648"/>
</svg>
