<svg width="17" height="12" viewBox="0 0 17 12" fill="none" xmlns="http://www.w3.org/2000/svg">
<path d="M15.2526 2.99061C15.2634 3.12186 15.2634 3.25313 15.2634 3.38437C15.2634 7.38748 11.7577 12 5.35027 12C3.37627 12 1.54252 11.5031 0 10.6406C0.280468 10.6687 0.550112 10.6781 0.84137 10.6781C2.47016 10.6781 3.96955 10.2 5.16689 9.38439C3.63516 9.35625 2.35152 8.48438 1.90925 7.28437C2.12501 7.31248 2.34073 7.33124 2.56728 7.33124C2.88008 7.33124 3.19292 7.29372 3.48415 7.22813C1.8877 6.94686 0.690329 5.72812 0.690329 4.25624V4.21876C1.15415 4.44376 1.69353 4.58438 2.26519 4.60311C1.32674 4.05935 0.711911 3.13124 0.711911 2.08123C0.711911 1.51874 0.884468 1.00311 1.18652 0.553111C2.90163 2.39061 5.4797 3.59059 8.37054 3.72186C8.31662 3.49686 8.28425 3.26251 8.28425 3.02813C8.28425 1.35936 9.83756 0 11.7684 0C12.7716 0 13.6776 0.365624 14.3141 0.95625C15.1015 0.825006 15.8566 0.571868 16.5254 0.225002C16.2665 0.928142 15.7164 1.51877 14.9937 1.89374C15.6948 1.82815 16.3744 1.65936 17 1.42501C16.5255 2.02499 15.9322 2.55934 15.2526 2.99061Z" fill="#424F71"/>
</svg>
