<svg width="33" height="32" viewBox="0 0 33 32" fill="none" xmlns="http://www.w3.org/2000/svg">
<rect x="0.5" width="32" height="32" rx="16" fill="#596EA6"/>
<path fill-rule="evenodd" clip-rule="evenodd" d="M21.8333 8.58578C21.2814 8.58578 20.7521 8.80502 20.3619 9.19526L14.0286 15.5286C13.9431 15.614 13.8825 15.7211 13.8532 15.8383L13.1865 18.505C13.1297 18.7322 13.1963 18.9725 13.3619 19.1381C13.5275 19.3037 13.7678 19.3702 13.995 19.3134L16.6616 18.6468C16.7789 18.6175 16.8859 18.5568 16.9714 18.4714L23.3047 12.1381C23.6949 11.7478 23.9142 11.2185 23.9142 10.6667C23.9142 10.1148 23.6949 9.5855 23.3047 9.19526C22.9145 8.80502 22.3852 8.58578 21.8333 8.58578ZM21.3047 10.1381C21.4449 9.99788 21.635 9.91912 21.8333 9.91912C22.0316 9.91912 22.2217 9.99788 22.3619 10.1381C22.5021 10.2783 22.5808 10.4684 22.5808 10.6667C22.5808 10.8649 22.5021 11.0551 22.3619 11.1953L16.1591 17.398L14.7495 17.7504L15.1019 16.3408L21.3047 10.1381Z" fill="white"/>
<path d="M11.1666 10C10.6362 10 10.1275 10.2107 9.75241 10.5858C9.37734 10.9609 9.16663 11.4696 9.16663 12V21.3333C9.16663 21.8638 9.37734 22.3725 9.75241 22.7476C10.1275 23.1226 10.6362 23.3333 11.1666 23.3333H20.5C21.0304 23.3333 21.5391 23.1226 21.9142 22.7476C22.2892 22.3725 22.5 21.8638 22.5 21.3333V16.6667C22.5 16.2985 22.2015 16 21.8333 16C21.4651 16 21.1666 16.2985 21.1666 16.6667V21.3333C21.1666 21.5102 21.0964 21.6797 20.9714 21.8047C20.8463 21.9298 20.6768 22 20.5 22H11.1666C10.9898 22 10.8202 21.9298 10.6952 21.8047C10.5702 21.6797 10.5 21.5102 10.5 21.3333V12C10.5 11.8232 10.5702 11.6536 10.6952 11.5286C10.8202 11.4036 10.9898 11.3333 11.1666 11.3333H15.8333C16.2015 11.3333 16.5 11.0349 16.5 10.6667C16.5 10.2985 16.2015 10 15.8333 10H11.1666Z" fill="white"/>
</svg>
