<svg width="54" height="36" viewBox="0 0 54 36" fill="none" xmlns="http://www.w3.org/2000/svg">
<path d="M3.00004 0.5C1.52728 0.5 0.333374 1.61929 0.333374 3C0.333374 4.38071 1.52728 5.5 3.00004 5.5H51C52.4728 5.5 53.6667 4.38071 53.6667 3C53.6667 1.61929 52.4728 0.5 51 0.5H3.00004Z" fill="#596EA6"/>
<path d="M3.00004 10.5C1.52728 10.5 0.333374 11.6193 0.333374 13C0.333374 14.3807 1.52728 15.5 3.00004 15.5H51C52.4728 15.5 53.6667 14.3807 53.6667 13C53.6667 11.6193 52.4728 10.5 51 10.5H3.00004Z" fill="#596EA6"/>
<path d="M0.333374 23C0.333374 21.6193 1.52728 20.5 3.00004 20.5H51C52.4728 20.5 53.6667 21.6193 53.6667 23C53.6667 24.3807 52.4728 25.5 51 25.5H3.00004C1.52728 25.5 0.333374 24.3807 0.333374 23Z" fill="#596EA6"/>
<path d="M3.00004 30.5C1.52728 30.5 0.333374 31.6193 0.333374 33C0.333374 34.3807 1.52728 35.5 3.00004 35.5H51C52.4728 35.5 53.6667 34.3807 53.6667 33C53.6667 31.6193 52.4728 30.5 51 30.5H3.00004Z" fill="#596EA6"/>
</svg>
