<svg width="15" height="13" viewBox="0 0 15 13" fill="none" xmlns="http://www.w3.org/2000/svg">
<path d="M9.57143 12.09C9.25 12.1044 8.94357 12.1154 8.65214 12.1229C8.36024 12.1299 8.10119 12.1333 7.875 12.1333H7.14286C6.29762 12.1333 5.50595 12.1189 4.76786 12.09C4.13691 12.0611 3.51476 12.0212 2.90143 11.9704C2.28857 11.9201 1.84524 11.8517 1.57143 11.765C1.2619 11.6639 0.994048 11.4761 0.767857 11.2017C0.541667 10.9272 0.386905 10.6022 0.303571 10.2267C0.232143 9.89444 0.175714 9.49 0.134286 9.01333C0.0923809 8.53667 0.0595238 8.08167 0.0357143 7.64833C0.0119047 7.12833 0 6.60111 0 6.06667C0 5.53222 0.0119047 5.005 0.0357143 4.485C0.0595238 4.05167 0.0923809 3.59667 0.134286 3.12C0.175714 2.64333 0.232143 2.23889 0.303571 1.90667C0.386905 1.53111 0.541667 1.20611 0.767857 0.931667C0.994048 0.657222 1.2619 0.469445 1.57143 0.368334C1.84524 0.281667 2.28857 0.212911 2.90143 0.162066C3.51476 0.1118 4.13691 0.0722224 4.76786 0.0433335C5.50595 0.0144446 6.29762 0 7.14286 0C7.9881 0 8.77976 0.0144446 9.51786 0.0433335C10.1488 0.0722224 10.771 0.1118 11.3843 0.162066C11.9971 0.212911 12.4405 0.281667 12.7143 0.368334C13.0238 0.469445 13.2917 0.657222 13.5179 0.931667C13.744 1.20611 13.8988 1.53111 13.9821 1.90667C14.0536 2.23889 14.11 2.64333 14.1514 3.12C14.1933 3.59667 14.2262 4.05167 14.25 4.485C14.2738 5.005 14.2857 5.53222 14.2857 6.06667V6.435C14.0595 6.31944 13.8274 6.22931 13.5893 6.1646C13.3512 6.09931 13.1071 6.06667 12.8571 6.06667C11.869 6.06667 11.0267 6.48902 10.33 7.33373C9.63381 8.17902 9.28571 9.20111 9.28571 10.4C9.28571 10.7033 9.30952 10.9957 9.35714 11.2771C9.40476 11.559 9.47619 11.83 9.57143 12.09ZM5.71429 8.66667L9.42857 6.06667L5.71429 3.46667V8.66667ZM12.1429 13V11.2667H10.7143V9.53333H12.1429V7.8H13.5714V9.53333H15V11.2667H13.5714V13H12.1429Z" fill="#424F71"/>
</svg>
